# xmcd
#
# Track frame offsets: 
#        150
#        16130
#        30189
#        45924
#        58352
#        73543
#        86950
#        103271
#        118075
#        131841
#        143393
#        155717
#        167982
#        176426
#        188571
#        204533
#        217174
#        229948
#
# Disc length: 3229 seconds
#
# Revision: 1
# Processed by: cddbd v1.5.2PL0 Copyright (c) Steve Scherf et al.
# Submitted via: ExactAudioCopy v1.3
#
DISCID=020c9b12
DTITLE=Various Artist - Country No 1's of the 70's
DYEAR=1900
DGENRE=Country
TTITLE0=Appalachian Pickers -  Blue Eyes Crying in the Rain
TTITLE1=Barbara Fairchild -  Teddy Bear Song
TTITLE2=Carl Smith -  Country Bumpkin
TTITLE3=Charlie Rich -  Behind Closed Doors
TTITLE4=Charlie Rich and Janie Fricke -  On My Knees
TTITLE5=Dave Dudley - The Pool Shark
TTITLE6=Dickey Lee  -  Rocky
TTITLE7=Don Gibson  -  Woman
TTITLE8=Donna Fargo -  You Can't Be A Beacon (if your light don't shin
TTITLE8=e)
TTITLE9=Freddy Fender -  Before the Next Tear Drops Fall
TTITLE10=Jeannie Pruet -  Satin Sheets
TTITLE11=Johnny Paycheck -  Take this job and shove It
TTITLE12=Johnny Rodriguez -  Thats The Way Love Goes
TTITLE13=Lynn Anderson -  How Can I Unlove You
TTITLE14=Ray Price -  She's Got To Be A Saint
TTITLE15=Charlie Rich  -  The Most Beautiful Girl
TTITLE16=Faron Young -  It's Four In The Morning
TTITLE17=Freddy Fender - Wasted Days and Wasted Nights
EXTD=Barry Lehman
EXTT0=
EXTT1=
EXTT2=
EXTT3=
EXTT4=
EXTT5=
EXTT6=
EXTT7=
EXTT8=
EXTT9=
EXTT10=
EXTT11=
EXTT12=
EXTT13=
EXTT14=
EXTT15=
EXTT16=
EXTT17=
PLAYORDER=
